<svg xmlns="http://www.w3.org/2000/svg" viewBox="0 0 25 10.801"><path fill="#fff" d="M2.743 8.411q-.804 0-1.425-.375-.61-.385-.964-1.05Q0 6.311 0 5.443 0 4.565.375 3.9q.386-.675 1.05-1.05.664-.385 1.532-.385.858 0 1.522.385.664.375 1.04 1.05.385.665.385 1.543h-.632q0 .868-.332 1.543-.322.665-.89 1.05-.568.375-1.307.375zm.193 2.39q-.76 0-1.425-.3T.386 9.622q-.14-.182-.107-.375.042-.193.214-.31.193-.13.396-.086.215.043.343.214.29.364.729.568.44.204.996.204.515 0 .943-.247.44-.246.697-.728.257-.483.257-1.18v-1.52l.354-.944.696.225v2.315q0 .846-.375 1.532-.375.697-1.05 1.104-.664.407-1.543.407zm.021-3.354q.558 0 .986-.257.429-.257.665-.707.246-.45.246-1.04 0-.589-.246-1.039-.236-.46-.665-.718-.428-.257-.986-.257-.557 0-.985.257-.429.257-.675.718-.247.45-.247 1.04 0 .589.247 1.039.246.45.675.707.428.257.985.257zm5.977.922q-.471 0-.836-.258-.364-.257-.568-.696-.203-.45-.203-1.029V.536q0-.236.15-.386.15-.15.386-.15.235 0 .385.15.15.15.15.386v5.85q0 .397.15.654t.386.257h.268q.214 0 .343.15.14.15.14.386 0 .236-.204.386-.204.15-.525.15zm2.484 0q-.236 0-.397-.15-.15-.161-.15-.397V3.054q0-.247.15-.397.161-.15.397-.15.246 0 .396.15.15.15.15.397v4.768q0 .236-.15.397-.15.15-.396.15zm0-6.815q-.29 0-.504-.204-.203-.214-.203-.503 0-.29.203-.493.214-.215.504-.215.289 0 .493.215.214.203.214.493 0 .289-.214.503-.204.204-.493.204zm5.247 6.857q-.857 0-1.532-.385-.664-.397-1.05-1.061-.375-.675-.375-1.522 0-.868.375-1.543.375-.675 1.029-1.05.653-.385 1.5-.385.632 0 1.157.246.525.236.943.718.15.171.107.353-.043.183-.236.322-.15.107-.332.075-.182-.043-.332-.193-.525-.557-1.307-.557-.547 0-.965.257-.418.247-.653.697-.236.45-.236 1.06 0 .579.236 1.029.246.45.675.718.428.257.996.257.375 0 .654-.086.29-.096.525-.289.171-.14.354-.15.182-.021.321.096.182.15.204.343.021.183-.129.333-.771.717-1.929.717zm4.817-2.185l-.664-.73 3.29-2.935q.16-.15.353-.14.204.011.343.172.15.16.14.354-.011.193-.172.343zm-.503 2.143q-.236 0-.386-.14-.14-.15-.14-.385V.525q0-.236.14-.375.15-.15.386-.15.236 0 .375.15.15.14.15.375v7.319q0 .235-.15.385-.14.14-.375.14zm3.825-.054q-.171.14-.386.118-.203-.01-.342-.182L21.9 5.56l.75-.707 2.23 2.743q.138.172.117.375-.01.193-.193.343z"/></svg>