<svg xmlns="http://www.w3.org/2000/svg" viewBox="0 0 100 100"><path fill="#31205b" d="M0 0h100v100H0z"/><path fill="#fff" d="M91.72 35.814L53.23 23.988a11.024 11.024 0 00-6.457 0L8.278 35.814c-3.248.998-3.248 5.294 0 6.291l6.71 2.062c-1.471 1.82-2.377 4.04-2.466 6.472-1.33.762-2.265 2.136-2.265 3.777 0 1.488.784 2.74 1.913 3.54L8.647 73.808a2.207 2.207 0 002.154 2.687h7.743a2.208 2.208 0 002.155-2.687l-3.523-15.852c1.129-.8 1.913-2.052 1.913-3.54 0-1.597-.893-2.932-2.161-3.708.105-2.073 1.164-3.905 2.855-5.067l26.987 8.292c1.25.384 3.65.863 6.457 0l38.494-11.826c3.25-1 3.25-5.294 0-6.293zm-37.196 22.34a15.447 15.447 0 01-9.05 0L25.46 52.007l-1.956 15.656c0 4.878 11.862 8.832 26.494 8.832 14.633 0 26.495-3.954 26.495-8.832l-1.956-15.658z"/></svg>
