<svg xmlns="http://www.w3.org/2000/svg" viewBox="0 0 28.443 12.309"><path d="M1.014 9.547q-.397-.364-.397-.904 0-.805.954-1.323-.623-.435-.91-1.378-.093-.292-.187-.397Q.336 5.38 0 5.215q.276-.127.419-.326.149-.198.253-.518.11-.32.304-.612.198-.292.507-.512.678-.474 1.747-.474.342 0 .711.071.077-.6.535-1.02.452-.424 1.058-.424.711 0 1.196.37.265.198.53.148.022.441-.342.568-.06.744-.645.744-.232 0-.281-.033.082-.072.082-.182 0-.116-.093-.198-.116.215-.518.215-.22 0-.348-.21.21-.066.331-.198.121-.138.121-.254 0-.303-.32-.303-.617 0-.722.96 1.004.43 1.28 1.35.181.623.672.838-.43.214-.568.48-.055.104-.1.247-.297.937-.93 1.384-.635.44-1.632.44-.634 0-1.103-.154-.182.116-.182.26 0 .137.055.236.056.094.199.171.281.15 1.07.265.358.072.738-.463.022.28.127.424.104.138.231.155 1.522.226 1.968.992.154.259.154.661 0 .408-.259.788-.259.386-.7.656-.915.552-2.249.552-1.565 0-2.392-.513-.711-.446-.711-1.141 0-.463.468-.876.155-.133.353-.232zm1.698-2.784q.121.171.243.22.12.045.28.045.166 0 .287-.044.122-.05.204-.165.16-.226.16-.761V4.53q0-.535-.121-.706-.121-.17-.243-.215-.121-.05-.286-.05-.16 0-.281.05-.122.045-.199.155-.165.231-.165.766v1.527q0 .535.121.705zm1.709-.038q.253-.088.292-.546.038-.43.038-.964 0-.827-.044-1.059-.066-.309-.286-.402zm-2.872 0q.11-.083.11-.193 0-.143-.038-.276-.15-.507-.15-1.041 0-.53.15-1.037.038-.132.038-.21v-.132q0-.05-.044-.082-.226.275-.33.628-.1.353-.16.623-.023.083-.31.21.293.143.31.214l.11.463q.143.585.314.833zm-.281 1.962q-.05.05-.05.143.022.596 1.698.899.193.044.276.419.027-.121.215-.204.192-.077.259-.072.832.1 1.124.188.518.16.755.474.066-.077.066-.199 0-.121-.12-.248-.122-.121-.398-.215-.474-.17-1.284-.264t-1.141-.166q-.325-.071-.6-.176-.602-.237-.8-.579zM1.565 9.9q-.39.17-.39.64 0 .374.567.677.634.342 1.637.342 1.235 0 1.604-.424.105-.116.105-.248 0-.127-.127-.226-.121-.1-.32-.16-.292-.1-.92-.171-.303-.033-.75.446 0-.308-.105-.446-.099-.138-.198-.149-.64-.083-1.103-.281z"/><path d="M8.141 9.266q-.253.176-.578.176-.32 0-.48-.143-.154-.143-.154-.276 0-.181.077-.286.121.093.309.093.32 0 .457-.369V6.763q0-.242-.1-.352-.159-.166-.572-.37.386-.176.496-.286.176-.182.176-.447V2.194q0-.629-.512-.629-.188 0-.31.094-.076-.105-.076-.215 0-.116.055-.22.06-.105.182-.193.259-.188.656-.188t.617.05q.303-.38.684-.38.55 0 .55.595v4.2q0 .265.116.38.171.177.557.353-.413.204-.518.309-.154.17-.154.413v1.698q.132.37.457.37.188 0 .309-.094.077.105.077.264 0 .155-.16.298-.154.143-.468.143-.315 0-.585-.176-.226.176-.54.176-.308 0-.568-.176zm.16-1.4q.248-.16.292-.7.017-.237.023-.53.005-.292.005-.413.006-.127.006-.187V5.54q0-.204-.006-.463v-.54q-.017-1.461-.055-1.627-.077-.347-.265-.468v1.857q0 1.141-.027 1.274-.022.127-.039.187-.05.171-.375.281.331.116.375.276.066.265.066 1.19zm4.416-5.826q-.282 0-.546-.15-.26-.148-.397-.396-.149-.254-.397-.386-.077-.039-.176-.083l.187-.115q.265-.166.391-.403.127-.237.38-.37.26-.137.558-.137.617 0 .893.518.187.342.578.507-.082.05-.165.088-.077.039-.149.089-.16.11-.287.325-.12.215-.358.364-.231.148-.512.148zm-.293-.673q-.033-.06-.055-.138-.016-.082-.016-.286 0-.204.21-.519-.205 0-.287.078-.083.071-.127.126-.039.05-.072.105-.027.05-.072.11-.104.15-.17.182.088.05.16.16.077.105.176.22.149.183.391.183-.033-.061-.071-.11l-.067-.111zm-.259 7.899q-.253.176-.578.176-.32 0-.48-.143-.154-.143-.154-.276 0-.181.077-.286.121.093.358.093t.408-.308V6.763q0-.242-.1-.352-.16-.166-.572-.37.385-.176.49-.28.182-.183.182-.447v-.805q0-.469-.32-.507-.093-.011-.237-.011-.143 0-.264.094-.077-.105-.077-.215 0-.116.055-.254.06-.143.182-.27.286-.298.661-.298.375 0 .678.133.27-.353.617-.353.568 0 .568.595v1.89q0 .265.116.381.17.17.557.347-.414.204-.519.309-.154.17-.154.413v1.775q.182.292.414.292.231 0 .352-.093.077.105.077.264 0 .155-.16.298-.154.143-.468.143-.314 0-.584-.176-.226.176-.546.176-.32 0-.579-.176zm.474-2.613q.006-.187.006-.314.005-.127.005-.204v-.149q0-.082-.005-.215 0-.132-.006-.292 0-.16-.005-.314-.022-.38-.055-.524-.066-.32-.254-.44v.358q0 .931-.044 1.096-.038.16-.132.243-.088.077-.265.138.33.116.375.28.066.266.066 1.197v.358q.254-.165.287-.678.027-.352.027-.54zm7.056 1.014q.121-.231.446-.231.22 0 .342.182.1.143.1.353 0 .204-.105.413-.1.21-.27.38-.171.171-.397.304-.22.132-.474.22-.513.182-1.07.182-.556 0-1.053-.193-.496-.198-.854-.551-.722-.711-.87-1.907-.04-.27-.128-.386-.165-.204-.545-.392.584-.264.672-.953.143-1.053.937-1.665.76-.595 1.852-.595.943 0 1.588.573.612.54.612 1.251 0 .403.28.513-.165.27-.462.27-.105 0-.193-.022-.193.281-.557.38-.116.028-.22.028-.105 0-.248-.039-.144-.044-.199-.116.16-.066.188-.33-.034.005-.061.005h-.044q-.375 0-.463-.43.408 0 .595-.314.066-.11.066-.27 0-.353-.226-.551-.226-.204-.628-.204-.932 0-.932 1.202v2.678q0 .938.717 1.186.21.077.474.077.265 0 .48-.066.22-.067.369-.182.303-.237.303-.601 0-.11-.022-.199zm-3.241.204q.077-.06.077-.137 0-.122-.05-.31-.226-.865-.226-1.2 0-.343.022-.53.022-.193.061-.386.066-.375.143-.661.05-.188.05-.254 0-.132-.077-.193-.232.276-.353.739-.121.463-.198.816-.028.143-.326.28.298.139.326.282.204.931.336 1.185.132.254.215.37zm5.788 1.395q-.254.176-.58.176-.319 0-.479-.143-.154-.143-.154-.276 0-.181.077-.286.121.093.309.093.32 0 .457-.369V6.77q0-.243-.099-.353-.154-.17-.573-.375.386-.176.49-.28.182-.183.182-.447v-3.12q0-.629-.512-.629-.188 0-.31.094-.076-.105-.076-.215 0-.116.055-.22.06-.105.182-.193.259-.188.656-.188t.617.05q.303-.38.684-.38.567 0 .567.595v4.614l1.593-1.472q.364-.375.364-.54 0-.166-.21-.166-.209 0-.39.105-.061-.1-.061-.254 0-.16.165-.308.165-.149.469-.149.303 0 .534.187.215-.187.469-.187.253 0 .44.149.188-.149.442-.149.253 0 .419.132.17.133.17.353 0 .204-.055.281-.148-.149-.369-.149-.215 0-.353.066-.132.061-.292.182-.16.116-.353.287l-.915.794 1.682 3.307q.154.33.27.485.121.154.303.154.187 0 .309-.093.077.105.077.264 0 .155-.16.298-.154.143-.496.143-.342 0-.662-.187-.259.187-.573.187-.309 0-.54-.165-.215.165-.485.165-.265 0-.425-.126-.16-.133-.16-.331 0-.199.083-.27.215.165.43.055.077-.039.138-.149L24.424 6.08l-.689.6v1.864q.105.27.348.27.126 0 .253-.1.083.072.083.276 0 .199-.16.326-.16.126-.43.126t-.485-.165q-.226.165-.535.165-.308 0-.567-.176zm.463-3.346l.005-.733v-1.08q0-1.026-.039-1.197-.077-.336-.28-.468v1.857q0 1.141-.028 1.274-.022.127-.039.187-.05.171-.375.281.331.116.375.276.066.265.066 1.19v.359q.293-.188.31-.992v-.331q.005-.165.005-.292zm3.186 1.951q.071-.093.071-.253t-.027-.287q-.022-.127-.06-.253-.073-.204-.21-.485l-.524-1.136-.248.22z"/></svg>